<?xml version="1.0" encoding="UTF-8" standalone="no"?>
<svg
   xmlns:dc="http://purl.org/dc/elements/1.1/"
   xmlns:cc="http://creativecommons.org/ns#"
   xmlns:rdf="http://www.w3.org/1999/02/22-rdf-syntax-ns#"
   xmlns:svg="http://www.w3.org/2000/svg"
   xmlns="http://www.w3.org/2000/svg"
   xmlns:sodipodi="http://sodipodi.sourceforge.net/DTD/sodipodi-0.dtd"
   xmlns:inkscape="http://www.inkscape.org/namespaces/inkscape"
   id="svg3353"
   viewBox="0 0 286.45 278.87"
   version="1.0"
   sodipodi:docname="mine3.svg"
   inkscape:version="0.92.1 r15371">
  <defs
     id="defs3836" />
  <sodipodi:namedview
     pagecolor="#ffffff"
     bordercolor="#666666"
     borderopacity="1"
     objecttolerance="10"
     gridtolerance="10"
     guidetolerance="10"
     inkscape:pageopacity="0"
     inkscape:pageshadow="2"
     inkscape:window-width="1871"
     inkscape:window-height="1176"
     id="namedview3834"
     showgrid="false"
     inkscape:zoom="3.5105964"
     inkscape:cx="143.22501"
     inkscape:cy="139.435"
     inkscape:window-x="49"
     inkscape:window-y="24"
     inkscape:window-maximized="1"
     inkscape:current-layer="svg3353" />
  <g
     id="layer1"
     transform="translate(-26.099,-55.866)">
    <g
       id="g6770"
       transform="translate(-242.12,-1231.2)">
      <path
         id="path6661"
         d="m 442.26,1288.1 -23.6,27.5 h -0.08 c -17.86,-1.1 -35.17,2.2 -50.66,9.3 l -30.97,-29.1 8.92,42.5 c -12.61,10 -23.02,22.8 -30.18,37.6 l -46.47,0.1 37.62,27 c -0.12,0.6 -0.29,1.2 -0.39,1.9 -2.38,14.3 -1.75,28.5 1.36,41.8 l -38.13,27.4 49.72,1.8 c 6.69,11.6 15.5,21.9 26.02,30.3 l -17.81,51 46.53,-34.7 c 6.49,2.4 13.3,4.3 20.41,5.5 5.88,1 11.76,1.4 17.54,1.5 l 21.51,35.4 10.97,-40.5 c 13.04,-4.2 25.08,-10.8 35.54,-19.5 l 42.23,14.2 -21.41,-37 c 8.14,-12.1 13.93,-26.1 16.57,-41.4 l 36.17,-13.3 -35.01,-14.6 c -1.51,-16.8 -6.97,-32.7 -15.56,-46.6 l 19.95,-31.7 -35.8,11.8 c -12.16,-12 -27.26,-21.3 -44.44,-26.4 z"
         inkscape:connector-curvature="0"
         style="fill:#8a9da5;stroke:#000000;stroke-width:2;stroke-linejoin:round" />
      <path
         id="path6673"
         d="m 511.76,1430.4 c -28.18,59.5 -98.33,79.7 -160.79,55.8 -7.49,-2.9 -14.52,-6.4 -21.11,-10.4 10.67,19.2 27.89,34.9 50,43.4 49.99,19.2 106.12,-5.8 125.29,-55.8 5.23,-13.7 7.56,-19.3 6.61,-33 z"
         inkscape:connector-curvature="0"
         style="fill:#445057" />
      <path
         id="path6678"
         d="m 368.32,1330 c -37.77,9.2 -58.27,58.2 -41.72,89.9 -0.6,-42.1 33.11,-81.7 69.68,-92.2 -9.34,-1.2 -18.95,-0.5 -27.96,2.3 z"
         inkscape:connector-curvature="0"
         style="opacity:0.30942999;fill:#e4eaed" />
      <path
         id="path6725"
         d="m 362.38,1390.9 c 1.56,0.6 3.04,1.5 4.23,2.9 3.8,4.2 3.46,10.7 -0.77,14.5 -1.76,1.6 -3.94,2.4 -6.14,2.6 3.44,1.2 7.43,0.6 10.33,-2 4.23,-3.8 4.57,-10.4 0.77,-14.6 -2.21,-2.5 -5.36,-3.6 -8.42,-3.4 z"
         inkscape:connector-curvature="0" />
      <g
         id="g3490"
         transform="matrix(1.7683,-1.5909,1.5908,1.7683,-2577.4,-478.98)">
        <path
           id="path6737"
           d="m 379.63,1423.1 c 0.34,0.6 0.53,1.3 0.53,2.1 0,2.3 -1.94,4.3 -4.33,4.3 -1,0 -1.92,-0.4 -2.65,-0.9 0.74,1.3 2.17,2.2 3.81,2.2 2.39,0 4.33,-1.9 4.33,-4.3 0,-1.4 -0.67,-2.6 -1.69,-3.4 z"
           inkscape:connector-curvature="0" />
        <path
           id="path3472"
           d="m 374.24,1428.8 c -0.28,-0.5 -0.44,-1.1 -0.44,-1.7 0,-2 1.62,-3.7 3.62,-3.7 0.84,0 1.61,0.3 2.22,0.8 -0.62,-1.1 -1.81,-1.9 -3.18,-1.9 -2.01,0 -3.63,1.6 -3.63,3.6 0,1.2 0.56,2.2 1.41,2.9 z"
           inkscape:connector-curvature="0"
           style="fill:#e4eaed" />
      </g>
      <path
         id="path3474"
         d="m 361.89,1409.3 c -1.32,-0.4 -2.55,-1.2 -3.55,-2.3 -3.18,-3.6 -2.89,-9 0.65,-12.2 1.47,-1.3 3.3,-2 5.14,-2.2 -2.88,-1 -6.22,-0.4 -8.65,1.7 -3.54,3.2 -3.83,8.7 -0.64,12.2 1.85,2.1 4.48,3 7.05,2.8 z"
         inkscape:connector-curvature="0"
         style="fill:#e4eaed" />
      <path
         id="path3468"
         d="m 309.12,1421.1 -0.03,2.1 210.24,4.1 -0.04,-2.2 -30.41,-2.1 -29.46,-0.4 -8.72,-0.4 -71,-1.7 z"
         inkscape:connector-curvature="0"
         style="fill:#e4eaed" />
      <g
         id="g3494"
         transform="matrix(1.7683,-1.5909,1.5908,1.7683,-2533.4,-478.98)">
        <path
           id="path3496"
           d="m 379.63,1423.1 c 0.34,0.6 0.53,1.3 0.53,2.1 0,2.3 -1.94,4.3 -4.33,4.3 -1,0 -1.92,-0.4 -2.65,-0.9 0.74,1.3 2.17,2.2 3.81,2.2 2.39,0 4.33,-1.9 4.33,-4.3 0,-1.4 -0.67,-2.6 -1.69,-3.4 z"
           inkscape:connector-curvature="0" />
        <path
           id="path3498"
           d="m 374.24,1428.8 c -0.28,-0.5 -0.44,-1.1 -0.44,-1.7 0,-2 1.62,-3.7 3.62,-3.7 0.84,0 1.61,0.3 2.22,0.8 -0.62,-1.1 -1.81,-1.9 -3.18,-1.9 -2.01,0 -3.63,1.6 -3.63,3.6 0,1.2 0.56,2.2 1.41,2.9 z"
           inkscape:connector-curvature="0"
           style="fill:#e4eaed" />
      </g>
      <g
         id="g3500"
         transform="matrix(1.7911,-0.95198,1.1163,2.1004,-1944.1,-1193.8)">
        <path
           id="path3502"
           d="m 379.63,1423.1 c 0.34,0.6 0.53,1.3 0.53,2.1 0,2.3 -1.94,4.3 -4.33,4.3 -1,0 -1.92,-0.4 -2.65,-0.9 0.74,1.3 2.17,2.2 3.81,2.2 2.39,0 4.33,-1.9 4.33,-4.3 0,-1.4 -0.67,-2.6 -1.69,-3.4 z"
           inkscape:connector-curvature="0" />
        <path
           id="path3504"
           d="m 374.24,1428.8 c -0.28,-0.5 -0.44,-1.1 -0.44,-1.7 0,-2 1.62,-3.7 3.62,-3.7 0.84,0 1.61,0.3 2.22,0.8 -0.62,-1.1 -1.81,-1.9 -3.18,-1.9 -2.01,0 -3.63,1.6 -3.63,3.6 0,1.2 0.56,2.2 1.41,2.9 z"
           inkscape:connector-curvature="0"
           style="fill:#e4eaed" />
      </g>
      <g
         id="g3506"
         transform="matrix(1.7911,-0.95198,1.1163,2.1004,-1943.8,-1231.6)">
        <path
           id="path3508"
           d="m 379.63,1423.1 c 0.34,0.6 0.53,1.3 0.53,2.1 0,2.3 -1.94,4.3 -4.33,4.3 -1,0 -1.92,-0.4 -2.65,-0.9 0.74,1.3 2.17,2.2 3.81,2.2 2.39,0 4.33,-1.9 4.33,-4.3 0,-1.4 -0.67,-2.6 -1.69,-3.4 z"
           inkscape:connector-curvature="0" />
        <path
           id="path3510"
           d="m 374.24,1428.8 c -0.28,-0.5 -0.44,-1.1 -0.44,-1.7 0,-2 1.62,-3.7 3.62,-3.7 0.84,0 1.61,0.3 2.22,0.8 -0.62,-1.1 -1.81,-1.9 -3.18,-1.9 -2.01,0 -3.63,1.6 -3.63,3.6 0,1.2 0.56,2.2 1.41,2.9 z"
           inkscape:connector-curvature="0"
           style="fill:#e4eaed" />
      </g>
      <g
         id="g3512"
         transform="matrix(1.7683,-1.5909,1.5908,1.7683,-2527.3,-524.36)">
        <path
           id="path3514"
           d="m 379.63,1423.1 c 0.34,0.6 0.53,1.3 0.53,2.1 0,2.3 -1.94,4.3 -4.33,4.3 -1,0 -1.92,-0.4 -2.65,-0.9 0.74,1.3 2.17,2.2 3.81,2.2 2.39,0 4.33,-1.9 4.33,-4.3 0,-1.4 -0.67,-2.6 -1.69,-3.4 z"
           inkscape:connector-curvature="0" />
        <path
           id="path3516"
           d="m 374.24,1428.8 c -0.28,-0.5 -0.44,-1.1 -0.44,-1.7 0,-2 1.62,-3.7 3.62,-3.7 0.84,0 1.61,0.3 2.22,0.8 -0.62,-1.1 -1.81,-1.9 -3.18,-1.9 -2.01,0 -3.63,1.6 -3.63,3.6 0,1.2 0.56,2.2 1.41,2.9 z"
           inkscape:connector-curvature="0"
           style="fill:#e4eaed" />
      </g>
      <g
         id="g3518"
         transform="matrix(1.6778,-0.87254,1.1431,2.0785,-1817.7,-1190.2)">
        <path
           id="path3520"
           d="m 379.63,1423.1 c 0.34,0.6 0.53,1.3 0.53,2.1 0,2.3 -1.94,4.3 -4.33,4.3 -1,0 -1.92,-0.4 -2.65,-0.9 0.74,1.3 2.17,2.2 3.81,2.2 2.39,0 4.33,-1.9 4.33,-4.3 0,-1.4 -0.67,-2.6 -1.69,-3.4 z"
           inkscape:connector-curvature="0" />
        <path
           id="path3522"
           d="m 374.24,1428.8 c -0.28,-0.5 -0.44,-1.1 -0.44,-1.7 0,-2 1.62,-3.7 3.62,-3.7 0.84,0 1.61,0.3 2.22,0.8 -0.62,-1.1 -1.81,-1.9 -3.18,-1.9 -2.01,0 -3.63,1.6 -3.63,3.6 0,1.2 0.56,2.2 1.41,2.9 z"
           inkscape:connector-curvature="0"
           style="fill:#e4eaed" />
      </g>
      <g
         id="g3524"
         transform="matrix(1.6778,-0.87254,1.1431,2.0785,-1817.7,-1190.2)">
        <path
           id="path3526"
           d="m 379.63,1423.1 c 0.34,0.6 0.53,1.3 0.53,2.1 0,2.3 -1.94,4.3 -4.33,4.3 -1,0 -1.92,-0.4 -2.65,-0.9 0.74,1.3 2.17,2.2 3.81,2.2 2.39,0 4.33,-1.9 4.33,-4.3 0,-1.4 -0.67,-2.6 -1.69,-3.4 z"
           inkscape:connector-curvature="0" />
        <path
           id="path3528"
           d="m 374.24,1428.8 c -0.28,-0.5 -0.44,-1.1 -0.44,-1.7 0,-2 1.62,-3.7 3.62,-3.7 0.84,0 1.61,0.3 2.22,0.8 -0.62,-1.1 -1.81,-1.9 -3.18,-1.9 -2.01,0 -3.63,1.6 -3.63,3.6 0,1.2 0.56,2.2 1.41,2.9 z"
           inkscape:connector-curvature="0"
           style="fill:#e4eaed" />
      </g>
      <g
         id="g3530"
         transform="matrix(1.6778,-0.87254,1.1431,2.0785,-1811.6,-1231.9)">
        <path
           id="path3532"
           d="m 379.63,1423.1 c 0.34,0.6 0.53,1.3 0.53,2.1 0,2.3 -1.94,4.3 -4.33,4.3 -1,0 -1.92,-0.4 -2.65,-0.9 0.74,1.3 2.17,2.2 3.81,2.2 2.39,0 4.33,-1.9 4.33,-4.3 0,-1.4 -0.67,-2.6 -1.69,-3.4 z"
           inkscape:connector-curvature="0" />
        <path
           id="path3534"
           d="m 374.24,1428.8 c -0.28,-0.5 -0.44,-1.1 -0.44,-1.7 0,-2 1.62,-3.7 3.62,-3.7 0.84,0 1.61,0.3 2.22,0.8 -0.62,-1.1 -1.81,-1.9 -3.18,-1.9 -2.01,0 -3.63,1.6 -3.63,3.6 0,1.2 0.56,2.2 1.41,2.9 z"
           inkscape:connector-curvature="0"
           style="fill:#e4eaed" />
      </g>
      <g
         id="g3542"
         transform="matrix(1.523,-0.13857,0.51676,2.2918,-826.01,-1770.3)">
        <path
           id="path3544"
           d="m 379.63,1423.1 c 0.34,0.6 0.53,1.3 0.53,2.1 0,2.3 -1.94,4.3 -4.33,4.3 -1,0 -1.92,-0.4 -2.65,-0.9 0.74,1.3 2.17,2.2 3.81,2.2 2.39,0 4.33,-1.9 4.33,-4.3 0,-1.4 -0.67,-2.6 -1.69,-3.4 z"
           inkscape:connector-curvature="0" />
        <path
           id="path3546"
           d="m 374.24,1428.8 c -0.28,-0.5 -0.44,-1.1 -0.44,-1.7 0,-2 1.62,-3.7 3.62,-3.7 0.84,0 1.61,0.3 2.22,0.8 -0.62,-1.1 -1.81,-1.9 -3.18,-1.9 -2.01,0 -3.63,1.6 -3.63,3.6 0,1.2 0.56,2.2 1.41,2.9 z"
           inkscape:connector-curvature="0"
           style="fill:#e4eaed" />
      </g>
      <g
         id="g3548"
         transform="matrix(1.523,-0.13857,0.51676,2.2918,-821.81,-1810.2)">
        <path
           id="path3550"
           d="m 379.63,1423.1 c 0.34,0.6 0.53,1.3 0.53,2.1 0,2.3 -1.94,4.3 -4.33,4.3 -1,0 -1.92,-0.4 -2.65,-0.9 0.74,1.3 2.17,2.2 3.81,2.2 2.39,0 4.33,-1.9 4.33,-4.3 0,-1.4 -0.67,-2.6 -1.69,-3.4 z"
           inkscape:connector-curvature="0" />
        <path
           id="path3552"
           d="m 374.24,1428.8 c -0.28,-0.5 -0.44,-1.1 -0.44,-1.7 0,-2 1.62,-3.7 3.62,-3.7 0.84,0 1.61,0.3 2.22,0.8 -0.62,-1.1 -1.81,-1.9 -3.18,-1.9 -2.01,0 -3.63,1.6 -3.63,3.6 0,1.2 0.56,2.2 1.41,2.9 z"
           inkscape:connector-curvature="0"
           style="fill:#e4eaed" />
      </g>
      <path
         id="path5580"
         transform="translate(339.84,1356.8)"
         d="m 13.5,145.93 c -6,8.5 -21.5,49.5 -19.5,46.5 2,-3 45.5,-34 42.5,-36 -3,-2 -21.5,-10 -23,-10.5 z"
         inkscape:connector-curvature="0"
         style="fill:#445057" />
      <path
         id="path5582"
         transform="translate(339.84,1356.8)"
         d="m 73.5,160.43 c 8,22 18,36 18,36 l 10,-38 -25.5,2"
         inkscape:connector-curvature="0"
         style="fill:#445057" />
      <path
         id="path5584"
         transform="translate(339.84,1356.8)"
         d="m 134.5,141.93 c 0,0 44,18 43,16 -1,-2 -23,-36 -23,-36 z"
         inkscape:connector-curvature="0"
         style="fill:#445057" />
      <path
         id="path5586"
         transform="translate(339.84,1356.8)"
         d="m 78.135,-38.758 c 0,0 3.889,-1.06 7.425,-1.767 3.535,-0.707 15.56,-24.749 15.56,-24.749 z"
         inkscape:connector-curvature="0"
         style="fill:#e4eaed" />
      <path
         id="path5588"
         transform="translate(339.84,1356.8)"
         d="m 145.66,-8.3519 c 0,0 1.42,1.4142 3.54,1.4142 2.12,0 31.82,-12.374 30.41,-12.374 -1.42,0 -33.59,10.96 -33.95,10.96 z"
         inkscape:connector-curvature="0"
         style="fill:#e4eaed" />
      <path
         id="path5590"
         transform="translate(339.84,1356.8)"
         d="m -64.347,20.993 c 2.829,0 42.073,0.354 42.073,0.354 l -2.121,3.535 z"
         inkscape:connector-curvature="0"
         style="fill:#e4eaed" />
      <path
         id="path5592"
         d="m 309.12,1423.2 -0.03,2.1 210.24,4.1 -0.04,-2.2 -30.41,-2.1 -29.46,-0.4 -8.72,-0.4 -71,-1.6 z"
         inkscape:connector-curvature="0"
         style="fill:#445057" />
    </g>
  </g>
  <metadata
     id="metadata3831">
    <rdf:RDF>
      <cc:Work>
        <dc:format>image/svg+xml</dc:format>
        <dc:type
           rdf:resource="http://purl.org/dc/dcmitype/StillImage" />
        <cc:license
           rdf:resource="http://creativecommons.org/licenses/publicdomain/" />
        <dc:publisher>
          <cc:Agent
             rdf:about="http://openclipart.org/">
            <dc:title>Openclipart</dc:title>
          </cc:Agent>
        </dc:publisher>
        <dc:title></dc:title>
        <dc:date>2008-12-25T21:19:18</dc:date>
        <dc:description>cartoon, cartoon, clip art, clipart, danger, danger, image, media, mine, mine, png, public domain, sea, sea, svg, war, war, </dc:description>
        <dc:source>http://openclipart.org/detail/20846/cartoon-sea-mine-by-rg1024</dc:source>
        <dc:creator>
          <cc:Agent>
            <dc:title>rg1024</dc:title>
          </cc:Agent>
        </dc:creator>
        <dc:subject>
          <rdf:Bag>
            <rdf:li>cartoon</rdf:li>
            <rdf:li>clip art</rdf:li>
            <rdf:li>clipart</rdf:li>
            <rdf:li>danger</rdf:li>
            <rdf:li>image</rdf:li>
            <rdf:li>media</rdf:li>
            <rdf:li>mine</rdf:li>
            <rdf:li>png</rdf:li>
            <rdf:li>public domain</rdf:li>
            <rdf:li>sea</rdf:li>
            <rdf:li>svg</rdf:li>
            <rdf:li>war</rdf:li>
          </rdf:Bag>
        </dc:subject>
      </cc:Work>
      <cc:License
         rdf:about="http://creativecommons.org/licenses/publicdomain/">
        <cc:permits
           rdf:resource="http://creativecommons.org/ns#Reproduction" />
        <cc:permits
           rdf:resource="http://creativecommons.org/ns#Distribution" />
        <cc:permits
           rdf:resource="http://creativecommons.org/ns#DerivativeWorks" />
      </cc:License>
    </rdf:RDF>
  </metadata>
  <path
     style="fill:#000000;stroke-width:0.28485188"
     d="m 164.76572,278.45696 c -0.31347,-0.27417 -1.52727,-2.10078 -2.69734,-4.05914 -3.51303,-5.87978 -17.97707,-29.63916 -18.65968,-30.65135 -0.12799,-0.18979 -1.8511,-0.38876 -4.34253,-0.50146 -10.08513,-0.45618 -19.91469,-2.27694 -29.25746,-5.41946 l -3.76322,-1.26579 -3.64485,2.75369 c -2.00467,1.51452 -7.425399,5.56851 -12.046064,9.00887 -4.620665,3.44035 -13.149603,9.79719 -18.953195,14.12632 -12.907095,9.6279 -11.847204,8.91646 -12.534671,8.41377 -0.709754,-0.51898 -0.867761,0.0112 4.718492,-15.83452 0.966554,-2.7417 2.37657,-6.77947 3.133371,-8.97283 0.756797,-2.19336 2.165882,-6.23114 3.131299,-8.97284 1.321041,-3.75164 5.631986,-16.1103 6.067274,-17.39372 0.02988,-0.0881 -1.48387,-1.51039 -3.363892,-3.16063 -7.165897,-6.29004 -13.209326,-13.28655 -19.172404,-22.19598 -1.109313,-1.65742 -2.172918,-3.35585 -2.363573,-3.77429 -0.328861,-0.72177 -0.457509,-0.76266 -2.508519,-0.79714 -1.189032,-0.02 -2.471369,-0.0676 -2.849639,-0.10578 -0.378269,-0.0382 -3.775127,-0.156 -7.548574,-0.26182 -3.773448,-0.10581 -7.501732,-0.24379 -8.285074,-0.30662 -0.783343,-0.0628 -4.11611,-0.18703 -7.406149,-0.27602 -3.290039,-0.089 -7.007357,-0.22104 -8.260705,-0.29345 -1.253348,-0.0724 -4.7142985,-0.20747 -7.6910007,-0.30014 -4.5210959,-0.14075 -5.47081019,-0.24455 -5.7682507,-0.63044 -0.19583567,-0.25406 -0.35606486,-0.5647 -0.35606486,-0.69031 0,-0.29975 3.39074926,-2.78749 20.65176126,-15.15185 2.19336,-1.57114 5.910677,-4.24553 8.260705,-5.94309 2.350028,-1.69757 5.397431,-3.87856 6.772009,-4.84664 1.450981,-1.0219 2.441947,-1.90944 2.362655,-2.11607 -0.24332,-0.63408 -1.261791,-6.4118 -1.723134,-9.77524 -1.257103,-9.16494 -1.146392,-19.66651 0.312263,-29.61996 l 0.437635,-2.98632 -0.804917,-0.65068 C 35.697957,115.0669 27.104577,108.88689 5.8991946,93.718418 2.7665289,91.477585 0.1602313,89.419815 0.10742204,89.145599 -0.15553587,87.780168 -0.86779855,87.820152 23.807247,87.815164 l 23.109337,-0.0047 1.851537,-3.597699 c 3.010671,-5.850001 8.518071,-13.908327 13.206523,-19.323535 2.905523,-3.355911 8.134654,-8.573734 11.359534,-11.334965 1.684745,-1.442527 3.063491,-2.760956 3.063875,-2.929842 5.7e-4,-0.31181 -1.808752,-9.123857 -3.417188,-16.641622 C 72.494833,31.711136 71.981208,29.275652 71.83948,28.570644 71.546866,27.115081 69.323113,16.473954 68.421916,12.21686 67.722997,8.9153037 67.75455,7.952287 68.565327,7.8399405 c 0.605347,-0.08388 0.904049,0.1547148 4.706474,3.7594125 1.335209,1.265781 3.450234,3.257927 4.700056,4.426992 1.249819,1.169065 3.361956,3.156758 4.693638,4.417097 1.331683,1.260338 4.340892,4.085239 6.687135,6.277558 2.346242,2.192318 5.358551,5.031975 6.694019,6.310348 1.335468,1.278372 2.768968,2.592383 3.185553,2.920019 l 0.757427,0.595708 2.360081,-1.010159 c 1.29805,-0.555586 4.41815,-1.70132 6.93358,-2.546077 11.58935,-3.892068 21.68366,-5.521779 34.97451,-5.646589 l 5.90376,-0.05544 11.62912,-13.529355 c 6.39602,-7.4411455 11.86054,-13.57392137 12.14338,-13.62839123 0.28284,-0.05446989 0.6266,0.0133071 0.76391,0.15061574 0.35087,0.35086919 0.49888,4.33433459 0.70183,18.88885149 0.0972,6.97175 0.26179,12.752659 0.36572,12.846467 0.10393,0.09381 1.59898,0.648445 3.32234,1.232525 7.93879,2.690629 16.77011,7.023351 23.73201,11.643142 4.92235,3.266376 11.97023,8.78635 14.58057,11.419655 0.86167,0.869257 1.74987,1.584428 1.97377,1.589268 0.2239,0.0048 8.18352,-2.554868 17.68805,-5.688239 9.50454,-3.13337 17.54849,-5.697037 17.87546,-5.697037 1.36686,0 1.02371,1.009341 -1.95852,5.760824 -5.46531,8.707703 -13.83238,21.997371 -15.58183,24.749109 -0.65819,1.035277 -1.19638,1.996652 -1.19598,2.136389 2.9e-4,0.139739 0.46752,1.023171 1.03803,1.963182 2.54276,4.189584 6.52265,12.770653 8.47974,18.283232 2.47867,6.981722 4.44874,15.329892 5.31532,22.523692 0.19357,1.6069 0.49224,3.02685 0.6637,3.15547 0.17147,0.12861 7.36185,3.16241 15.97861,6.74178 19.05779,7.91653 18.54207,7.69011 18.74975,8.23137 0.34909,0.90965 0.43335,0.87217 -13.19513,5.86785 -3.05504,1.11986 -6.77236,2.48486 -8.26071,3.03333 -5.73426,2.11313 -7.38258,2.71849 -10.9668,4.02768 l -3.70307,1.3526 -0.32947,1.41923 c -2.24615,9.6755 -2.84655,11.7759 -5.08768,17.7982 -2.3179,6.22865 -5.02078,11.75557 -8.86503,18.1275 l -2.08602,3.45762 3.44702,5.94249 c 1.89585,3.26837 4.41373,7.60887 5.59527,9.64556 1.18155,2.0367 2.83377,4.88807 3.67161,6.33639 0.83784,1.44832 2.22835,3.85105 3.09003,5.3394 0.86168,1.48835 2.28452,3.95659 3.16188,5.48497 0.87735,1.52838 1.70932,2.90065 1.84882,3.04949 0.40229,0.42922 0.29444,1.86799 -0.15289,2.03965 -0.32813,0.12591 -17.20893,-5.44267 -38.60485,-12.73485 -1.79435,-0.61155 -3.42465,-1.11192 -3.62289,-1.11192 -0.19823,0 -1.93471,1.19045 -3.85884,2.64544 -8.07905,6.10925 -16.6045,10.79275 -26.85626,14.75364 -2.35003,0.90796 -4.36642,1.81898 -4.48086,2.02448 -0.11444,0.20551 -0.9153,3.00141 -1.7797,6.21311 -0.8644,3.21171 -1.76683,6.54448 -2.0054,7.40615 -0.40781,1.47297 -2.22143,8.16282 -5.5987,20.65177 -1.74986,6.47088 -1.84737,6.65245 -3.02115,5.62582 z m 9.54462,-113.61416 c -3.66046,-3.76863 -3.86687,-9.95864 -0.41405,-12.41726 0.65341,-0.46527 1.46853,-0.68096 3.04207,-0.80494 l 2.1495,-0.16936 -1.63673,-0.78719 c -3.54426,-1.70463 -6.84192,-0.73 -8.55785,2.52929 -0.9734,1.84891 -0.85881,4.89507 0.27488,7.30681 1.03335,2.19828 2.63498,3.91757 4.56762,4.90317 0.75028,0.38262 1.41414,0.64741 1.47524,0.58841 0.0611,-0.059 -0.34421,-0.57602 -0.90068,-1.14893 z m -85.765627,0.0839 c -2.690198,-1.72246 -4.140556,-3.43509 -4.741781,-5.59924 -0.362394,-1.30446 -0.35719,-3.57635 0.01122,-4.90282 0.755755,-2.72104 3.620282,-5.34002 6.351995,-5.80752 0.967488,-0.16558 1.081839,-0.24489 0.617616,-0.42836 -0.980634,-0.38758 -3.97093,-0.28495 -5.345642,0.18346 -1.628786,0.55499 -3.674111,2.31968 -4.682102,4.03969 -0.610902,1.04242 -0.785188,1.75852 -0.8834,3.62965 -0.134609,2.56464 0.301055,3.99702 1.82234,5.99153 1.269417,1.66429 4.486286,3.22287 6.667563,3.23045 0.657446,0.002 0.671435,-0.0236 0.182179,-0.33684 z m 44.539567,0.23618 c 0,-0.0752 -0.48069,-0.38475 -1.0682,-0.68799 -3.84111,-1.98262 -5.58189,-7.06181 -3.79616,-11.07632 0.93633,-2.10496 3.0371,-3.93632 5.20763,-4.53978 2.24119,-0.62311 1.53039,-1.05244 -1.44781,-0.8745 -3.45385,0.20637 -5.91331,1.78732 -7.35838,4.73002 -0.67106,1.3665 -0.79391,1.97312 -0.78926,3.89723 0.005,1.90683 0.12887,2.51425 0.76121,3.72115 1.20513,2.30009 3.45677,4.0931 5.84683,4.65589 1.21528,0.28617 2.64414,0.38036 2.64414,0.1743 z m 80.49018,-0.96502 c -1.37144,-2.65206 -1.5859,-6.92019 -0.45875,-9.12959 1.20903,-2.3699 2.98425,-3.02131 5.21928,-1.91521 0.80633,0.39905 1.5176,0.67399 1.58061,0.61099 0.063,-0.063 -0.57327,-0.80112 -1.41394,-1.64025 -2.41472,-2.41028 -5.06649,-2.79974 -6.72305,-0.9874 -2.65137,2.90069 -2.19228,8.58033 1.04909,12.97899 1.01474,1.37706 1.44053,1.42408 0.74676,0.0825 z M 51.78262,162.6862 c -1.651206,-1.92907 -2.279567,-3.50597 -2.400193,-6.0234 -0.119316,-2.49006 0.351467,-4.1627 1.58387,-5.62733 1.067537,-1.26869 2.273754,-1.80013 4.495843,-1.98077 l 1.993964,-0.16209 -1.42426,-0.67385 c -2.794394,-1.32207 -5.583857,-1.03931 -7.585346,0.76891 -1.818065,1.64252 -2.373762,2.95868 -2.379539,5.63592 -0.0043,2.00007 0.108463,2.51481 0.904943,4.13036 1.000371,2.0291 2.467769,3.60461 4.213242,4.52364 1.632953,0.85978 1.744837,0.74904 0.597476,-0.59139 z m 199.51519,-23.61073 c 0,-0.61694 -0.032,-1.12413 -0.0712,-1.12709 -22.9716,-1.73841 -28.56253,-2.02938 -43.65355,-2.27186 -8.61677,-0.13846 -19.38417,-0.39053 -23.92756,-0.56017 -4.54339,-0.16963 -16.65672,-0.49902 -26.9185,-0.73196 -10.26179,-0.23294 -24.0415,-0.56468 -30.62158,-0.73719 -11.62005,-0.30465 -48.248895,-0.19609 -74.004983,0.21934 l -11.337567,0.18287 0.08592,1.01922 0.08592,1.01921 21.648744,-0.13375 c 42.305786,-0.26137 66.907296,-0.13319 83.319176,0.43413 2.11503,0.0731 7.37055,0.20001 11.67893,0.28199 14.42819,0.27456 29.33357,0.68461 31.19128,0.85809 0.62668,0.0585 7.80494,0.18486 15.95171,0.28077 14.38541,0.16933 31.13464,1.01996 45.96946,2.3346 0.52203,0.0463 0.60382,-0.0984 0.60382,-1.0682 z M 58.453085,130.55629 V 128.571 l -0.996981,0.0375 c -0.54834,0.0206 -0.996982,0.0689 -0.996982,0.1072 0,0.25701 1.716047,3.8259 1.839625,3.8259 0.08489,0 0.154338,-0.89338 0.154338,-1.98529 z m -6.367459,-5.71949 c -1.692026,-1.88194 -2.462949,-3.95875 -2.462949,-6.635 0,-2.3906 0.904413,-4.62119 2.267147,-5.59154 l 0.793865,-0.56528 0.199058,2.05881 c 0.392355,4.05807 2.033358,11.26348 2.732618,11.99854 0.322863,0.33938 1.774502,-0.27761 2.49632,-1.06101 0.434971,-0.47209 0.721344,-1.62692 1.212813,-4.8908 1.000061,-6.64148 0.998722,-6.37602 0.03938,-7.80045 -0.462602,-0.68688 -1.337465,-1.76219 -1.944139,-2.38959 -0.994455,-1.02843 -1.032936,-1.12014 -0.390911,-0.93159 0.391671,0.11503 1.454169,0.64306 2.361103,1.17341 1.09838,0.64229 1.681412,0.84723 1.746125,0.61376 0.05344,-0.19277 0.701448,-2.26013 1.440032,-4.59412 9.32883,-29.479991 34.409557,-55.3161 62.817192,-64.709122 2.41475,-0.79844 2.41857,-0.801248 1.42426,-1.048001 -1.89926,-0.471328 -13.2564,-0.340917 -16.66384,0.191346 -7.97348,1.245507 -16.131628,3.748181 -21.931107,6.727803 -17.551168,9.017334 -30.75671,27.752524 -34.625065,49.123853 -0.311938,1.723353 -0.717476,5.346191 -0.901194,8.050751 l -0.334034,4.91737 -1.013748,0.27768 c -2.417527,0.6622 -4.255952,2.61233 -4.868051,5.16385 -0.952322,3.96972 1.469694,8.86824 5.278565,10.67587 0.783343,0.37176 1.468184,0.67719 1.52187,0.67872 0.05369,0.001 -0.484203,-0.64434 -1.19531,-1.43526 z m 165.378834,-1.42429 c -0.65354,-1.55838 -0.7711,-2.24906 -0.77342,-4.54382 -0.003,-2.43362 0.0752,-2.8386 0.7709,-4.02207 0.76883,-1.30782 2.13791,-2.24467 3.28028,-2.24467 0.30228,0 1.14814,0.30303 1.8797,0.67339 0.73156,0.37036 1.33011,0.59184 1.33011,0.49218 0,-0.0997 -0.38435,-0.64749 -0.85411,-1.21739 -0.92508,-1.12228 -3.4066,-2.51185 -4.48572,-2.51185 -1.5855,0 -3.51982,1.73981 -4.04775,3.64071 -0.65586,2.36155 -0.19707,5.75347 1.14047,8.43163 0.65011,1.30172 2.24394,3.4259 2.43054,3.2393 0.0548,-0.0548 -0.24713,-0.92666 -0.671,-1.93741 z m -37.34719,-0.48468 c -1.54468,-1.83192 -2.36969,-3.81292 -2.53186,-6.07942 -0.31886,-4.4564 2.26902,-7.40426 6.14856,-7.00385 1.48329,0.15309 1.52706,0.13915 0.91338,-0.29068 -0.94584,-0.66249 -3.3111,-1.5098 -4.2095,-1.50797 -2.544,0.005 -5.13279,1.92262 -5.76483,4.26984 -0.85912,3.19051 0.25546,7.10861 2.72456,9.57771 1.07519,1.07519 3.00998,2.34098 3.62999,2.37483 0.12682,0.007 -0.28281,-0.59628 -0.9103,-1.34046 z m -87.498329,-1.20188 c -5.016863,-2.65253 -6.074857,-9.56538 -2.075981,-13.56425 1.145658,-1.14566 3.557159,-2.38909 4.641776,-2.39341 0.558309,-0.002 0.626674,-0.074 0.341822,-0.35885 -0.219105,-0.21911 -1.147252,-0.35606 -2.412989,-0.35606 -1.749469,0 -2.341027,0.13986 -3.957621,0.93571 -3.044477,1.49879 -4.515988,3.75324 -4.722539,7.23524 -0.117533,1.98135 -0.04928,2.36123 0.719302,4.00366 1.397216,2.98578 4.312062,5.02293 7.197748,5.03042 l 1.281834,0.003 -1.013352,-0.53578 z m 45.112079,-2.85547 c -2.58194,-1.4808 -4.0615,-4.07076 -4.06919,-7.12309 -0.003,-1.01834 0.12793,-2.32898 0.29,-2.91253 0.67476,-2.42961 3.69967,-5.14383 6.14055,-5.50987 1.80914,-0.2713 1.18605,-0.73284 -1.066,-0.78961 -3.7769,-0.0952 -6.54993,1.50302 -8.19159,4.72121 -1.84742,3.62154 -1.15495,7.41732 1.855,10.16825 1.68865,1.54333 3.30125,2.24332 5.23697,2.27325 l 1.28183,0.0198 -1.47757,-0.84742 z M 48.35099,92.930466 c 0.576608,-0.949197 1.002485,-1.770861 0.946394,-1.825917 -0.05609,-0.05506 -9.523461,-0.16471 -21.038599,-0.243674 -11.515137,-0.07896 -20.552063,-0.08273 -20.0820574,-0.0084 1.3245393,0.209566 36.8964404,3.731033 38.0783164,3.769593 0.988088,0.03224 1.107094,-0.06381 2.095946,-1.691638 z M 223.96981,61.927902 c 6.90755,-2.370953 27.328,-10.920156 27.328,-11.441107 0,-0.122931 -0.92933,0.03761 -2.06518,0.356754 -3.34548,0.940003 -31.38161,10.233771 -31.65658,10.493926 -0.42782,0.404758 1.59222,1.413188 2.83311,1.41433 0.63645,5.7e-4 2.23874,-0.370171 3.56065,-0.823903 z M 158.77842,28.089715 c 2.09848,-2.044465 6.49803,-9.192465 11.52101,-18.7182991 1.31358,-2.4911459 2.34244,-4.5752448 2.28636,-4.6313307 -0.10127,-0.1012723 -1.30537,1.2589918 -8.34582,9.4282628 -5.34962,6.207339 -13.2492,15.312517 -13.83939,15.95148 -0.28052,0.303712 -0.51004,0.637026 -0.51004,0.740698 0,0.103671 1.74902,-0.233055 3.88672,-0.748281 3.55003,-0.855626 3.98326,-1.030827 5.00116,-2.02253 z"
     id="path3848"
     inkscape:connector-curvature="0" />
  <path
     style="fill:#000000;stroke-width:0.28485188"
     d="m 163.11595,276.33686 c -0.90285,-1.45815 -3.96956,-6.49667 -6.81492,-11.19673 -9.26899,-15.31081 -12.46592,-20.50072 -12.94227,-21.01052 -0.38386,-0.41081 -1.28825,-0.55271 -5.01533,-0.78691 -10.83829,-0.68105 -19.83459,-2.41896 -29.66795,-5.73128 l -2.61762,-0.88173 -9.488582,7.1071 c -16.918458,12.6722 -34.152692,25.49337 -36.05082,26.81952 -0.977734,0.6831 -1.886454,0.6307 -2.176639,-0.12551 -0.09014,-0.23491 2.150202,-7.05579 4.978545,-15.15752 8.469472,-24.26061 9.357202,-26.79686 10.938654,-31.25182 l 1.516782,-4.27278 -1.753699,-1.70982 c -0.964534,-0.9404 -2.90735,-2.77611 -4.317366,-4.07935 -5.546485,-5.12648 -11.131032,-11.77489 -15.924505,-18.95815 -1.65998,-2.48756 -3.018146,-4.62445 -3.018146,-4.74864 0,-0.40298 -1.45222,-0.52238 -8.40313,-0.69089 -3.760045,-0.0912 -7.669637,-0.22523 -8.687983,-0.29793 -1.018345,-0.0727 -5.889312,-0.26783 -10.824371,-0.43362 -22.82059765,-0.76663 -22.50329926,-0.73885 -22.50329926,-1.97 0,-0.57084 1.98008516,-2.02851 30.14021526,-22.18828 3.181958,-2.27796 6.229431,-4.53322 6.772165,-5.01168 l 0.986787,-0.86994 -0.584621,-2.97102 c -1.655033,-8.41079 -2.373395,-19.95846 -1.73625,-27.91021 0.318838,-3.97918 1.057248,-10.26491 1.308009,-11.13442 0.07862,-0.27261 -0.517397,-0.88563 -1.646492,-1.69348 -0.973345,-0.69641 -4.910209,-3.52249 -8.748588,-6.28019 -3.838379,-2.75769 -9.670721,-6.94434 -12.960761,-9.303658 C 1.4163303,90.664056 0.19748973,89.767283 -0.02354764,89.37231 -0.14836444,89.149277 -0.11237497,88.708728 0.05642891,88.393314 0.36016206,87.825784 0.60397631,87.819836 23.565893,87.819836 h 23.202548 l 1.322656,-2.63488 c 3.162904,-6.300864 8.023645,-13.516848 13.478744,-20.009797 2.612539,-3.109577 9.005623,-9.524843 12.204305,-12.246648 1.80726,-1.537824 2.339756,-2.157673 2.339756,-2.723577 0,-0.402954 -0.647531,-3.801178 -1.438958,-7.551606 -1.756399,-8.323272 -4.788346,-22.800661 -6.121236,-29.2286 -0.960674,-4.6329181 -1.007803,-5.470624 -0.322421,-5.7312432 0.716155,-0.272321 1.684286,0.5064065 7.740189,6.2259072 3.446708,3.255244 8.185208,7.723238 10.529997,9.928874 2.34479,2.205637 5.293007,4.9793 6.551594,6.163694 5.295986,4.9838 6.68316,6.249685 6.848494,6.249685 0.09607,0 2.378019,-0.824444 5.070979,-1.832099 6.11384,-2.287674 10.32383,-3.563323 15.43583,-4.677134 7.92343,-1.726368 16.42661,-2.606027 25.19105,-2.606027 h 4.49397 l 5.80925,-6.756394 c 3.19509,-3.716017 7.09109,-8.24093 8.65777,-10.055362 1.56669,-1.8144328 4.11008,-4.7666272 5.65199,-6.5604321 1.54191,-1.7938049 3.0293,-3.42486956 3.30531,-3.6245881 0.55795,-0.40371783 1.31714,-0.22495321 1.54287,0.36329664 0.0809,0.21087058 0.23142,5.93716446 0.33444,12.72509756 0.10302,6.787933 0.23035,12.726246 0.28295,13.196252 0.0526,0.470006 0.10429,1.901466 0.11487,3.181024 l 0.0192,2.326467 1.21063,0.430024 c 16.66555,5.919766 27.63789,12.291234 39.4353,22.89948 1.44001,1.294857 2.843,2.354286 3.11777,2.354286 0.45357,0 10.19577,-3.128801 28.37581,-9.113161 3.72131,-1.224945 7.02203,-2.160225 7.33494,-2.078396 1.3278,0.347226 1.40702,0.199553 -8.83126,16.461317 -1.77548,2.820034 -4.44041,7.050084 -5.92209,9.400112 -1.48168,2.350028 -3.03975,4.849604 -3.46238,5.554612 l -0.76842,1.281834 2.09984,3.832878 c 6.24084,11.391535 10.17367,22.765588 12.16835,35.191828 0.40237,2.5067 0.82676,5.06689 0.94307,5.68931 l 0.21147,1.13169 4.27278,1.81105 c 2.35003,0.99608 5.74689,2.42385 7.54858,3.17282 20.68058,8.59704 22.78074,9.51426 22.94099,10.01913 0.23236,0.73213 -0.0494,1.09155 -1.25582,1.60179 -1.03655,0.4384 -16.36482,6.101 -28.09434,10.37867 -3.44671,1.25698 -6.37347,2.38593 -6.50391,2.50877 -0.13044,0.12284 -0.79585,2.51365 -1.47871,5.31291 -3.05277,12.51441 -6.90018,21.94988 -13.04625,31.99496 l -1.99627,3.26268 0.70344,1.29495 c 0.3869,0.71222 1.43242,2.54544 2.32338,4.07382 0.89097,1.52838 2.32494,3.99662 3.18662,5.48497 l 3.13337,5.41219 3.13337,5.41218 3.13337,5.41219 c 0.86168,1.48835 2.29393,3.95517 3.18278,5.48183 2.39161,4.10774 2.50461,4.36126 2.17699,4.88419 -0.15685,0.25037 -0.52846,0.48856 -0.82579,0.52931 -0.29734,0.0408 -9.8414,-3.05196 -21.20902,-6.8727 l -20.66841,-6.94679 -0.83791,0.58979 c -0.46085,0.32438 -2.50429,1.79596 -4.54098,3.27018 -6.67575,4.8321 -15.10507,9.48432 -22.78815,12.57698 -5.69418,2.29206 -6.9154,2.87811 -7.0615,3.38872 -0.8403,2.93679 -3.89547,14.08749 -6.33382,23.11704 -4.75447,17.60652 -4.45056,16.64928 -5.31836,16.75133 -0.66159,0.0778 -0.92592,-0.20626 -2.38557,-2.56366 z"
     id="path3850"
     inkscape:connector-curvature="0" />
</svg>
